<svg id="Layer_1" enable-background="new 0 0 512.08 512.08" height="512" viewBox="0 0 512.08 512.08" width="512" xmlns="http://www.w3.org/2000/svg"><path d="m475.59 67.55v-67.55h-439.1v512.08h439.1v-429.53h-15v414.53h-409.1v-482.08h409.1v52.55z"/><path d="m427.41 475.71v-440.84h-342.73v70.67h-18v93h18v59.18h15v-59.18h18v-93h-18v-55.67h312.73v410.84h-312.73v-23.786h18c0-16.008 0-69.099 0-93.004h-18v-71.2h-15v71.204h-18v93h18v38.786zm-324.73-355.17v63h-21v-63zm-21 301.384v-63h21v62.996z"/><path d="m169.543 358.924h173v15h-173z"/><path d="m169.543 400.54h173v15h-173z"/><path d="m250.781 184.386-17.961 57.338h19.781l-11.933 33.676 14.139 5.01 19.022-53.686h-20.591l11.858-37.854z"/><path d="m361.498 302.863v-10.936l-96.996-184.387h-16.919l-96.996 184.388v10.937l12.427 9.443h186.059zm-17.478-5.555h-175.953l-2.401-1.824 90.376-171.805 90.378 171.805z"/><path d="m397.406 198.205h-15v-65.832h15zm0-80.832h-15v-15h15zm0-30h-15v-15h15z"/></svg>