<svg height="384pt" viewBox="-32 0 384 384" width="384pt" xmlns="http://www.w3.org/2000/svg"><path d="m210.046875 311.894531 11.585937-4.222656c.289063-.121094.574219-.246094.863282-.375l1.046875-.457031c.480469-.207032.921875-.472656 1.394531-.679688 4.101562-1.800781 8.109375-3.761718 12.015625-5.871094.285156-.160156.566406-.335937.863281-.496093 4.199219-2.3125 8.261719-4.808594 12.207032-7.472657.074218-.046874.136718-.097656.207031-.144531 26.121093-17.6875 46.289062-42.710937 58.066406-71.984375l3.695313-10.09375c5.144531-15.808594 8.007812-32.632812 8.007812-50.097656 0-17.480469-2.921875-34.273438-8.121094-50.03125l-5.03125-13.511719c-1.695312-3.9375-3.625-7.730469-5.617187-11.480469-.214844-.410156-.390625-.839843-.605469-1.25-14.777344-27.335937-37.050781-49.597656-64.386719-64.375-.191406-.105468-.40625-.191406-.597656-.296874-3.945313-2.101563-7.945313-4.117188-12.089844-5.910157l-13.511719-5.023437c-15.765624-5.199219-32.558593-8.121094-50.039062-8.121094s-34.273438 2.921875-50.023438 8.121094l-13.511718 5.03125c-4.128906 1.785156-8.113282 3.792968-12.039063 5.886718-.21875.113282-.441406.199219-.648437.320313-27.34375 14.777344-49.625 37.054687-64.402344 64.402344-.109375.207031-.207031.4375-.320312.644531-2.09375 3.929688-4.101563 7.921875-5.886719 12.042969l-5.023438 13.503906c-5.222656 15.765625-8.144531 32.558594-8.144531 50.046875 0 17.464844 2.863281 34.289062 8.007812 50.097656l3.6875 10.078125c15.519532 38.617188 45.609376 69.902344 84.601563 86.585938.054687.023437.101563.054687.160156.078125l.117188.046875c.683593.289062 1.355469.601562 2.042969.882812l11.328124 4.132813c.679688.226562 1.367188.425781 2.046876.640625v39.457031h-79.992188v32h256v-32h-80v-39.449219c.6875-.214843 1.367188-.429687 2.046875-.65625zm-64.4375-24.710937c-4.785156-.542969-9.503906-1.367188-14.082031-2.472656-1.785156-.398438-3.496094-.941407-5.238282-1.414063l33.710938-59.097656 33.71875 59.089843c-1.816406.496094-3.597656 1.054688-5.453125 1.480469-13.425781 3.222657-28.433594 4.023438-42.65625 2.414063zm-49.425781-16.246094c-19.527344-11.296875-36.007813-27.785156-47.261719-47.34375l55.636719-31.753906c5.648437 9.792968 13.800781 17.945312 23.59375 23.59375l-31.746094 55.628906c-.070312-.039062-.140625-.078125-.222656-.125zm-42.40625-182.265625c.191406-.289063.414062-.558594.605468-.847656 1.863282-2.71875 3.847657-5.34375 5.914063-7.902344.640625-.792969 1.289063-1.59375 1.941406-2.371094 2.195313-2.589843 4.464844-5.117187 6.851563-7.535156.308594-.3125.621094-.625.933594-.9375 2.410156-2.382813 4.929687-4.644531 7.519531-6.832031.785156-.660156 1.578125-1.300782 2.367187-1.941406 2.5625-2.066407 5.195313-4.058594 7.914063-5.921876.289062-.199218.558593-.40625.847656-.605468 2.519531-1.699219 5.160156-3.226563 7.800781-4.746094l31.6875 55.527344c-9.808594 5.65625-17.976562 13.824218-23.625 23.640625l-55.503906-31.726563c1.511719-2.632812 3.039062-5.273437 4.746094-7.800781zm177.566406-34.886719c.265625.175782.511719.375.777344.558594 2.742187 1.878906 5.390625 3.886719 7.976562 5.96875.78125.632812 1.566406 1.273438 2.335938 1.917969 2.605468 2.203125 5.140625 4.480469 7.566406 6.882812.296875.285157.585938.574219.871094.871094 2.402344 2.421875 4.679687 4.96875 6.890625 7.574219.652343.777344 1.285156 1.5625 1.925781 2.34375 2.074219 2.570312 4.066406 5.210937 5.9375 7.9375.191406.28125.398438.542968.589844.824218 1.695312 2.519532 3.226562 5.160157 4.746094 7.800782l-55.519532 31.695312c-5.648437-9.792968-13.800781-17.953125-23.601562-23.601562l31.6875-55.527344c2.648437 1.519531 5.289062 3.058594 7.816406 4.753906zm-6.832031 216.726563c-.3125.175781-.625.359375-.9375.535156l-31.734375-55.605469c9.792968-5.648437 17.945312-13.800781 23.601562-23.601562l55.636719 31.753906c-11.117187 19.316406-27.34375 35.628906-46.566406 46.917969zm-95.886719-116.671875.109375-.542969c3.089844-14.425781 15.90625-25.28125 31.242187-25.296875h.046876c2.152343 0 4.257812.222656 6.289062.640625l.261719.054687c14.496093 3.03125 25.425781 15.914063 25.425781 31.304688 0 2.183594-.222656 4.3125-.648438 6.375l-.023437.128906c-2.574219 12.441406-12.390625 22.257813-24.832031 24.832032l-.128906.023437c-2.046876.417969-4.175782.640625-6.359376.640625-.015624 0-.023437 0-.03125 0-15.382812-.007812-28.25-10.9375-31.289062-25.433594l-.046875-.253906c-.410156-2.046875-.640625-4.152344-.640625-6.3125 0-2.113281.230469-4.160156.625-6.160156zm159.375 6.160156c0 11.695312-1.585938 23.03125-4.503906 33.839844l-59.296875-33.839844 59.136719-33.742188c2.953124 10.765626 4.664062 22.046876 4.664062 33.742188zm-128-128c11.695312 0 22.976562 1.710938 33.742188 4.664062l-33.742188 59.136719-33.742188-59.136719c10.765626-2.953124 22.046876-4.664062 33.742188-4.664062zm-128 128c0-11.6875 1.710938-22.960938 4.65625-33.726562l59.070312 33.765624-59.230468 33.808594c-2.910156-10.816406-4.496094-22.152344-4.496094-33.847656zm112 192v-32.800781c.433594.039062.878906.023437 1.320312.066406 4.839844.445313 9.726563.734375 14.679688.734375 4.984375 0 9.902344-.289062 14.761719-.734375.40625-.042969.832031-.027344 1.238281-.066406v32.800781zm0 0"/></svg>