<svg id="Layer_1" height="512" viewBox="0 0 512 512" width="512" xmlns="http://www.w3.org/2000/svg" data-name="Layer 1"><path d="m313.3 94.19c15.75 5.19 25.44 44 21.56 64.51-.95 5.03-5.37 8.22-8.61 6.32l-58.99-34.73a4.272 4.272 0 0 1 -1.57-1.69c-.01-.01-.01-.01-.01-.02a12.151 12.151 0 0 0 -.61-1.82c-.01-.01-.01-.01-.01-.02a9.232 9.232 0 0 1 .97-5.76c10.86-20.72 30.34-32.38 47.27-26.79z" fill="#f8ec7d"/><path d="m218.33 226.6a108.688 108.688 0 0 1 -70.33-101.9c0-60.03 48.35-108.7 108-108.7s108 48.67 108 108.7a108.711 108.711 0 0 1 -68.95 101.38 107.638 107.638 0 0 1 -76.72.52zm116.53-67.9c3.88-20.51-5.81-59.32-21.56-64.51-16.93-5.59-36.41 6.07-47.27 26.79a9.232 9.232 0 0 0 -.97 5.76 12.962 12.962 0 0 0 -19.02-5.88 3.9 3.9 0 0 0 .51-1.14l17.89-66.33c.98-3.65-3.15-7.12-8.14-6.75-20.33 1.54-54.5 21-55.43 37.66-1 17.9 14.92 33.82 37.21 39.02a8.723 8.723 0 0 0 5.63-.52 13.112 13.112 0 0 0 4.88 21.32 3.738 3.738 0 0 0 -.99.17l-65.24 20.01c-3.58 1.1-4.4 6.36-1.52 10.3 11.73 16.07 45.73 34.21 60.28 26.23 15.64-8.58 20.93-30.16 13.87-51.4a8.225 8.225 0 0 0 -3.72-4.63 12.091 12.091 0 0 0 1.82.13 13.042 13.042 0 0 0 13-13.08 13.394 13.394 0 0 0 -.4-3.25 4.272 4.272 0 0 0 1.57 1.69l58.99 34.73c3.24 1.9 7.66-1.29 8.61-6.32z" fill="#e48e66"/><path d="m295.19 226.44v269.56h-76.86v-269.4a107.638 107.638 0 0 0 76.72-.52zm-37.26 49.58a1.17 1.17 0 1 0 -1.17 1.18 1.174 1.174 0 0 0 1.17-1.18z" fill="#6fe3ff"/><path d="m265.69 128.6a13.394 13.394 0 0 1 .4 3.25 13.042 13.042 0 0 1 -13 13.08 12.091 12.091 0 0 1 -1.82-.13 5.053 5.053 0 0 0 -2.68-.68 13.112 13.112 0 0 1 -4.88-21.32 5.469 5.469 0 0 0 2.33-1.94 12.962 12.962 0 0 1 19.02 5.88c0 .01 0 .01.01.02a5.918 5.918 0 0 0 .61 1.82c0 .01 0 .01.01.02z" fill="#6fe3ff"/><path d="m256.3 46.64c4.99-.37 9.12 3.1 8.14 6.75l-17.89 66.33a3.9 3.9 0 0 1 -.51 1.14 12.383 12.383 0 0 0 -2.33 1.94 8.723 8.723 0 0 1 -5.63.52c-22.29-5.2-38.21-21.12-37.21-39.02.93-16.66 35.1-36.12 55.43-37.66z" fill="#f8ec7d"/><ellipse cx="256.76" cy="276.02" fill="#e48e66" rx="1.17" ry="1.18"/><path d="m254.99 149.43c7.06 21.24 1.77 42.82-13.87 51.4-14.55 7.98-48.55-10.16-60.28-26.23-2.88-3.94-2.06-9.2 1.52-10.3l65.24-20.01a3.738 3.738 0 0 1 .99-.17 12.539 12.539 0 0 0 2.68.68 8.225 8.225 0 0 1 3.72 4.63z" fill="#f8ec7d"/><g fill="#63316d"><path d="m349.589 190.218a114.527 114.527 0 0 0 20.411-65.518c0-63.246-51.141-114.7-114-114.7s-114 51.454-114 114.7a114.71 114.71 0 0 0 70.33 105.976v259.324h-59.64a6 6 0 0 0 0 12h63.691a5.92 5.92 0 0 0 3.9 0h72.963a5.918 5.918 0 0 0 3.9 0h64.916a6 6 0 0 0 0-12h-60.87v-259.963a113.941 113.941 0 0 0 48.399-39.819zm-195.589-65.518c0-56.629 45.757-102.7 102-102.7s102 46.071 102 102.7a102.709 102.709 0 0 1 -65.133 95.791 101.5 101.5 0 0 1 -71.362.865 5.961 5.961 0 0 0 -2.224-.833c-39.094-15.19-65.281-53.523-65.281-95.823zm70.33 365.3v-255.107a113.53 113.53 0 0 0 64.86-.432v255.539z"/><path d="m244.006 206.091c17.618-9.665 24.552-32.944 17.166-57a19.143 19.143 0 0 0 9.438-9.866l52.6 30.969a9.994 9.994 0 0 0 5.077 1.379 10.84 10.84 0 0 0 4.489-1 14.79 14.79 0 0 0 7.975-10.763c2.085-11.021.717-26.675-3.571-40.852-2.914-9.632-9.647-26.4-22-30.47-18.681-6.168-39.994 4.76-52.8 26.709a18.892 18.892 0 0 0 -7.762-2.367l15.614-57.89a10.425 10.425 0 0 0 -2.169-9.429 14.543 14.543 0 0 0 -12.219-4.859c-22.144 1.683-59.81 22.619-60.964 43.313-1.116 19.969 15.021 38.047 39.5 44.612a19.327 19.327 0 0 0 -.292 3.273 19.1 19.1 0 0 0 2.558 9.523l-56.046 17.191a10.487 10.487 0 0 0 -6.864 6.871 14.32 14.32 0 0 0 2.259 12.7c10.481 14.357 37.194 30.569 56.485 30.568a23.818 23.818 0 0 0 11.526-2.612zm67.416-106.2c11.016 3.63 21.345 37.6 17.543 57.7a3.785 3.785 0 0 1 -.714 1.648l-57.229-33.692c-.023-.07-.052-.134-.077-.2a3.535 3.535 0 0 1 .4-1.575c9.606-18.338 26.46-28.378 40.077-23.883zm-52.357 28.273v1.252l.616.559v1.281l.385.349c0 .083.015.164.015.247a7.066 7.066 0 0 1 -7.229 7.078 11.012 11.012 0 0 0 -2.833-.734 7.087 7.087 0 0 1 -2.459-10.682 11.5 11.5 0 0 0 2.408-1.989 6.892 6.892 0 0 1 3.113-.753 6.974 6.974 0 0 1 5.984 3.39zm-52.2-43.528c.652-11.658 30.027-30.507 49.883-32.011.1-.008.2-.011.3-.011a3.216 3.216 0 0 1 1.324.265l-17.329 64.221c-.174.143-.339.291-.506.438a3.062 3.062 0 0 1 -1.094-.055c-19.686-4.598-33.388-18.411-32.583-32.849zm-21.176 86.425a2.953 2.953 0 0 1 -.565-1.33l63.246-19.4c.149.039.3.07.446.1a2.773 2.773 0 0 1 .486.887c6.219 18.71 1.566 37.32-11.062 44.247-10.187 5.585-41.124-8.842-52.556-24.506z"/><path d="m256.76 268.84a7.18 7.18 0 1 0 7.17 7.18 7.184 7.184 0 0 0 -7.17-7.18z"/></g></svg>