<svg height="512" viewBox="0 0 512 512" width="512" xmlns="http://www.w3.org/2000/svg"><g id="Flat"><path d="m24 64h128v64h-128z" fill="#3e454d"/><path d="m360 64h128v64h-128z" fill="#3e454d"/><path d="m24 128h464v32h-464z" fill="#68737f"/><path d="m56 96h64v32h-64z" fill="#4f5761"/><path d="m64 48h48v48h-48z" fill="#fdca77"/><path d="m392 96h64v32h-64z" fill="#4f5761"/><path d="m400 48h48v48h-48z" fill="#fdca77"/><path d="m152 64h208v64h-208z" fill="#4f5761"/><path d="m192 64h128v32h-128z" fill="#68737f"/><path d="m40 160h424v256h-424z" fill="#529ddf"/><path d="m24 416h464v32h-464z" fill="#68737f"/><path d="m64 184h376v16h-376z" fill="#4384c3"/><path d="m64 376h376v16h-376z" fill="#4384c3"/><path d="m232 224h48l-32 48h48l-48 80v-56h-32z" fill="#f0e168"/></g></svg>